# xmcd CD database file
#
# Track frame offsets:
#	150
#	17247
#	33213
#	51363
#	67808
#	82536
#	103844
#	119642
#	137414
#	160090
#	175092
#	193898
#	208645
#	228191
#	240956
#	256370
#
# Disc length: 3703 seconds
#
# Revision: 0
# Processed by: cddbd v1.5.1PL0 Copyright (c) Steve Scherf et al.
# Submitted via: CDex 1.51
#
DISCID=c90e7510
DTITLE=Bill Wyman's RHYTHM KINGS - Just For A Thrill
DYEAR=2004
DGENRE=Rock
TTITLE0=Disappearing Nightly
TTITLE1=Roll 'Em Pete
TTITLE2=Down Home Girl
TTITLE3=Mississippi Flyer
TTITLE4=4.That's How Heartaches Are Made
TTITLE5=Booty Ooty
TTITLE6=Cadillac Woman
TTITLE7=Town Living
TTITLE8=This Aint United Nations
TTITLE9=Memphis Woman
TTITLE10=Taxman
TTITLE11=Just For A Thrill
TTITLE12=Cry Baby
TTITLE13=You Don't Know
TTITLE14=Jitterbug Boogie
TTITLE15=Melody
EXTD=YEAR: 2004
EXTT0=
EXTT1=
EXTT2=
EXTT3=
EXTT4=
EXTT5=
EXTT6=
EXTT7=
EXTT8=
EXTT9=
EXTT10=
EXTT11=
EXTT12=
EXTT13=
EXTT14=
EXTT15=
PLAYORDER=
